<?xml version="1.0" encoding="UTF-8"?>
<svg viewBox="0 0 441.6 453.6125125" xmlns="http://www.w3.org/2000/svg">
 <path d="m107.91 1.5853c-6.9547 1.5812-13.065 7.4557-15.812 13.906-1.9711 6.3216 2.3464 12.268 7.4688 15.406 5.0367 5.4489 2.0716 13.819-3.5312 17.562-6.6082 7.4928-17.162 13.621-27 8.75-4.9244-1.7794-8.1056-6.3445-12.438-8.8438-7.5784 3.0938-10.785 11.769-17.324 16.419-13.81 12.74-22.377 30.062-29.34 47.205-12.024 31.159-12.571 69.646 8.3824 97.157 1.6728 4.1537 7.7897 4.6832 5.875-0.90625-2.0606-22.713-0.5182-47.755 12.25-67.406 8.1268-13.143 24.902-17.831 39.423-14.579 12.525 2.2134 25.111 7.3818 33.171 17.829 42.798 43.327 86.363 86.19 129.19 129.47-2.2798 4.6775-2.2297 10.15 1.375 14.219 7.2934 7.6694 15.344 14.574 22.562 22.375 47.39 47.006 93.893 95.026 142 141.22 7.678 4.1884 15.436-2.3005 19.531-8.375 6.064-6.5241 16.284-12.071 16.781-21.938-1.8147-10.12-12.595-14.449-18.286-22.129-49.92-49.475-98.884-100.02-149.53-148.68-3.6786-2.088-8.1768-1.0078-11.75 0.75-45.512-44.877-90.701-90.121-135.69-135.63-7.1257-6.0042-13.47-14.516-11.4-24.374 1.5274-8.596 8.3659-15.282 15-20.375 5.3324-3.9767 11.485 0.19638 14.738 4.7384 4.1638 5.3766 12.297 6.3581 17.23 1.3866 5.8032-4.5581 12.565-12.604 7.375-20.094-5.8901-7.6582-14.021-13.231-20.296-20.634-11.734-11.413-22.548-24.033-35.517-33.928-1.4134-0.50159-2.9465-0.68107-4.4375-0.5z"/>
</svg>
